<?xml version="1.0" encoding="UTF-8" standalone="no"?>
<!-- Created with Inkscape (http://www.inkscape.org/) -->

<svg
   xmlns:dc="http://purl.org/dc/elements/1.1/"
   xmlns:cc="http://creativecommons.org/ns#"
   xmlns:rdf="http://www.w3.org/1999/02/22-rdf-syntax-ns#"
   xmlns:svg="http://www.w3.org/2000/svg"
   xmlns="http://www.w3.org/2000/svg"
   xmlns:sodipodi="http://sodipodi.sourceforge.net/DTD/sodipodi-0.dtd"
   xmlns:inkscape="http://www.inkscape.org/namespaces/inkscape"
   width="206.11041mm"
   height="33.602085mm"
   viewBox="0 0 206.11041 33.602085"
   version="1.1"
   id="svg8"
   inkscape:version="0.92.5 (2060ec1f9f, 2020-04-08)"
   sodipodi:docname="m&amp;n logo.svg">
  <defs
     id="defs2" />
  <sodipodi:namedview
     id="base"
     pagecolor="#ffffff"
     bordercolor="#666666"
     borderopacity="1.0"
     inkscape:pageopacity="0.0"
     inkscape:pageshadow="2"
     inkscape:zoom="0.98994949"
     inkscape:cx="340.8179"
     inkscape:cy="129.34763"
     inkscape:document-units="mm"
     inkscape:current-layer="layer1"
     showgrid="false"
     inkscape:pagecheckerboard="true"
     fit-margin-top="0"
     fit-margin-left="0"
     fit-margin-right="0"
     fit-margin-bottom="0"
     inkscape:window-width="1920"
     inkscape:window-height="1017"
     inkscape:window-x="1912"
     inkscape:window-y="70"
     inkscape:window-maximized="1" />
  <metadata
     id="metadata5">
    <rdf:RDF>
      <cc:Work
         rdf:about="">
        <dc:format>image/svg+xml</dc:format>
        <dc:type
           rdf:resource="http://purl.org/dc/dcmitype/StillImage" />
        <dc:title></dc:title>
      </cc:Work>
    </rdf:RDF>
  </metadata>
  <g
     inkscape:label="Layer 1"
     inkscape:groupmode="layer"
     id="layer1"
     transform="translate(-121.97292,-87.923038)">
    <g
       id="g896"
       transform="matrix(0.99213661,0,0,0.98048608,121.97281,87.522011)"
       style="fill:#161517">
      <path
         id="path888"
         d="m 120.95,23.28 c -1.75,-0.25 -1.9,-1.34 -1.82,-1.94 0.23,-1.63 2.91,-2.92 5.8,-4.56 0.69,1.04 1.53,2 2.45,2.82 -2.2,2.08 -4.49,3.94 -6.43,3.68 m 3.77,-13.57 c 0.29,-2.09 2.36,-4.37 3.74,-4.18 1.38,0.19 2,1.37 1.71,3.46 -0.32,2.27 -2.33,3.85 -4.66,5.28 -0.67,-1.52 -0.99,-3.11 -0.79,-4.56 m 12.18,10.67 c -0.3,-0.04 -1,0.94 -3.6,0.58 -1.27,-0.18 -2.53,-0.76 -3.68,-1.59 1.43,-1.41 2.7,-2.67 3.67,-3.16 0.3,0.04 0.45,0.49 0.7,0.53 0.25,0.03 0.8,-0.27 0.9,-0.97 0.1,-0.71 -0.24,-1.24 -0.74,-1.31 -1.36,-0.18 -3.39,1.85 -5.61,4.02 -0.81,-0.75 -1.54,-1.63 -2.14,-2.57 2.8,-1.71 5.43,-3.85 5.87,-7.04 0.21,-1.5 -0.32,-4.28 -3.17,-4.68 -2.85,-0.39 -5.52,2.3 -6.04,6.05 -0.22,1.59 0.17,3.3 0.95,4.92 -3,1.74 -6.03,3.43 -6.4,6.12 -0.28,2 1.21,3.02 3.26,3.31 2.54,0.35 5.23,-1.85 7.6,-4.11 1.25,0.88 2.59,1.49 3.88,1.67 2.4,0.34 3.83,-0.28 4.49,-0.65 0.18,-0.14 0.38,-0.47 0.39,-0.56 0.02,-0.16 -0.21,-0.54 -0.33,-0.56"
         inkscape:connector-curvature="0" />
      <path
         id="path890"
         d="m 46.74,7.08 c -0.09,0.64 -1.21,1.29 -2.08,1.17 -0.95,-0.13 -1.2,-0.74 -1.08,-1.61 0.1,-0.73 1.21,-1.3 2.08,-1.18 0.95,0.13 1.19,0.82 1.08,1.62"
         inkscape:connector-curvature="0" />
      <path
         id="path892"
         d="m 200.29,18.5 c -0.26,1.85 -2.88,4.78 -5.6,4.4 -1.37,-0.19 -2.24,-0.79 -2.07,-1.45 0.17,-0.66 1.64,-0.39 1.77,-0.9 0.1,-0.35 -0.25,-0.79 -0.79,-0.89 -0.43,-0.08 -1.03,0.07 -1.5,0.34 2.55,-1.76 4.95,-3.65 7.24,-5.74 0.79,1.06 1.1,3.12 0.95,4.24 m -12.76,0.31 c -0.24,1.76 -2.19,4.91 -4.6,4.57 -1.25,-0.17 -2.11,-0.65 -2.02,-1.3 0.09,-0.65 1.44,-0.46 1.51,-0.96 0.05,-0.36 -0.3,-0.76 -0.8,-0.83 -0.4,-0.05 -0.92,0.12 -1.33,0.41 2.03,-1.93 4.14,-3.83 5.97,-5.94 0.72,1.06 1.47,2.64 1.27,4.05 m -10.14,-4.77 c 0.95,0.13 1.4,0.55 1.29,1.35 -0.28,2.05 -3,3.61 -7.03,4.43 0.83,-2.28 4.19,-6 5.74,-5.78 m 28.71,6.28 c -0.68,-0.09 -2.78,0.52 -3.88,0.99 0.46,-0.73 0.73,-1.62 0.85,-2.48 0.31,-2.21 -0.42,-4.76 -1.86,-6.46 0.56,-0.62 1.59,-1.78 1.71,-2.61 0.04,-0.32 -0.24,-0.49 -0.51,-0.53 -0.67,-0.09 -3.23,3.58 -4.03,4.37 -2.79,2.74 -5.24,4.94 -8.84,6.56 0.26,-0.57 0.36,-1.17 0.45,-1.79 0.27,-1.93 -0.96,-4.16 -2.24,-5.55 0.56,-0.79 1.14,-1.63 1.28,-2.62 0.04,-0.3 -0.27,-0.45 -0.51,-0.48 -0.48,-0.07 -1.99,2.81 -2.31,3.28 -2.04,2.97 -9.75,11.32 -13.72,10.77 -1.14,-0.16 -1.76,-0.77 -1.6,-1.94 0.05,-0.33 0.14,-0.65 0.25,-0.95 3.16,-0.15 8.17,-1.95 8.63,-5.24 0.18,-1.34 -0.36,-2.41 -1.98,-2.64 -2.91,-0.4 -6.65,2.53 -8.32,4.8 -0.26,0.36 -0.44,0.79 -0.73,1.13 -1.04,1.17 -4.85,4.72 -6.71,4.46 -0.77,-0.11 -1.01,-0.43 -0.91,-1.18 0.37,-2.68 10.58,-11.21 11.17,-15.52 0.26,-1.88 -1.03,-3.2 -2.78,-3.45 -2.3,-0.32 -8.94,5.06 -10.46,6.36 0.77,-1.1 2.26,-3.09 2.53,-5.02 0.34,-2.48 -1.71,-3.65 -4.94,-4.1 -5.15,-0.71 -14.01,4.02 -14.71,9.07 -0.23,1.71 0.99,2.61 2.35,2.8 3.24,0.45 8.09,-4.53 8.24,-5.6 0.03,-0.29 -0.16,-0.43 -0.4,-0.46 -0.21,-0.03 -4.16,5.59 -7.69,5.1 -0.96,-0.13 -1.71,-0.53 -1.52,-1.89 0.58,-4.22 8.88,-8.57 13.28,-7.95 1.48,0.2 3.58,0.63 3.31,2.55 -0.07,0.52 -0.69,1.35 -1.04,1.78 l -14.18,17.97 c -0.25,0.32 -0.23,0.36 -0.26,0.56 -0.03,0.25 0.22,0.29 0.37,0.31 0.77,0.1 2.63,0.07 3.29,0.01 0.44,-0.04 0.81,-0.45 1.09,-0.8 0,0 5.75,-7.84 7.77,-10.24 0.9,-1.05 1.87,-2.03 2.9,-2.96 1.16,-1.05 7.92,-6.46 9.39,-6.25 0.65,0.09 0.75,0.86 0.68,1.36 -0.34,2.45 -11.14,12.36 -11.54,15.25 -0.33,2.39 1.53,3.32 3.57,3.61 2.13,0.29 5.08,-2.4 6.47,-3.78 -0.41,3 1.97,3.57 4.18,3.88 2.65,0.37 5.75,-1.9 7.75,-3.77 -0.11,0.14 -0.19,0.3 -0.22,0.48 -0.21,1.55 1.36,3.04 2.81,3.24 2.5,0.35 4.92,-1.19 6.48,-3.02 0.91,-0.28 2.01,-1.01 2.8,-1.54 -0.29,0.23 -0.45,0.49 -0.5,0.85 -0.21,1.53 1.36,3.05 2.79,3.25 1.88,0.26 3.87,0.22 5.62,-0.6 0.51,-0.24 0.89,-0.58 1.37,-0.85 1.02,-0.57 3.46,-1.46 4.61,-1.3 0.85,0.12 1.06,0.67 0.95,1.41 -0.32,2.38 -8.11,5.1 -10.39,5.7 -8.42,2.25 -20.65,2.66 -29.5,2.9 -5.51,0.15 -11.02,-0.11 -16.53,-0.29 -9.87,-0.33 -19.73,-0.84 -29.6,-1.07 -16.64,-0.39 -33.35,-1.48 -50.08,-1.9 -11.9,-0.3 -23.72,-0.15 -35.59,0.11 -5.54,0.12 -12.29,0.63 -17.63,2.24 -0.79,0.24 -6.11,2.16 -6.25,3.12 -0.05,0.38 0.39,0.56 0.69,0.6 0.26,0.04 4.89,-1.75 5.82,-1.95 5.88,-1.26 12.38,-1.47 18.38,-1.73 5.91,-0.26 11.82,-0.11 17.74,0.08 8.07,0.25 16.19,0.65 24.25,1.06 20.69,1.04 41.44,1.81 62.16,2.61 15.25,0.59 30.74,0.21 45.88,-1.95 5.83,-0.83 15.79,-2.67 20.17,-7.1 0.65,-0.66 1.39,-1.43 1.55,-2.6 0.19,-1.34 -0.78,-2.34 -1.62,-2.46"
         inkscape:connector-curvature="0" />
      <path
         id="path894"
         d="m 89.61,16.49 c 0.11,-0.8 -0.34,-1.22 -1.29,-1.35 -1.55,-0.22 -4.66,3.48 -5.49,5.77 4.04,-0.82 6.49,-2.37 6.78,-4.42 M 117.44,3.13 c -0.01,0.16 -0.17,0.46 -0.41,0.8 l -9.57,13.44 c -0.66,0.93 -3.54,4.9 -3.69,5.98 -0.04,0.33 0.16,0.49 0.46,0.53 1.4,0.19 4.58,-2.4 5.45,-3.32 0.44,-0.46 2.51,-2.57 2.73,-2.54 0.22,0.03 0.42,0.35 0.38,0.6 -0.04,0.28 -2.1,2.43 -2.63,2.92 -1.79,1.64 -3.85,3.8 -6.51,3.43 -1.63,-0.22 -2.65,-1.44 -2.43,-3.09 0.07,-0.44 0.24,-0.8 0.46,-1.31 -1.89,1.9 -5.76,4.86 -8.12,4.53 -1.52,-0.21 -2.64,-1.15 -2.34,-3.35 -2.17,2.26 -4.85,3.73 -7.1,3.42 -2.31,-0.32 -4.47,-0.81 -4.2,-3.65 -1.48,1.52 -4.04,3.68 -6.63,3.32 -1.21,-0.17 -2.84,-0.8 -2.68,-1.95 0.16,-1.15 4.4,-5.53 4.62,-7.12 0.04,-0.23 -0.28,-0.54 -0.49,-0.57 -1.51,-0.21 -5.5,3.38 -6.41,4.46 -1.18,1.38 -2.54,3.46 -2.54,3.46 -0.13,0.2 -0.4,0.58 -0.63,0.61 -0.62,0.08 -2.98,0.29 -2.95,0.04 0.02,-0.11 0.1,-0.35 0.35,-0.73 l 0.92,-1.39 c -2.04,1.57 -5.19,3.2 -7.85,2.83 -1.66,-0.23 -3.59,-1.41 -3.72,-3.25 -1.46,1.39 -4.01,3.81 -6.2,3.5 -1.71,-0.23 -2.76,-1.83 -2.52,-3.5 -1.79,1.71 -3.78,3.91 -6.8,3.49 -1.9,-0.27 -2.78,-1.38 -2.39,-3.28 -1.35,1.23 -3.94,3.57 -6.68,3.19 -1.36,-0.19 -3.25,-1.14 -2.92,-3.52 0.13,-0.9 0.82,-2.33 1.76,-3.82 L 30.25,10.8 C 30.95,9.69 31.5,8.88 31.58,8.28 31.64,7.85 31.28,7.63 30.94,7.59 29.03,7.32 23.93,11.46 21.6,15.2 l -5.2,8.33 c -0.34,0.55 -0.63,0.74 -1,0.75 -0.34,0 -1.96,0 -2.87,-0.12 -0.31,-0.05 -0.18,-0.35 -0.15,-0.57 0.03,-0.22 0.3,-0.61 0.51,-0.93 L 20.1,11.12 C 20.56,10.38 22.28,7.75 22.34,7.29 22.41,6.76 22.2,5.95 21.32,5.83 18.86,5.49 14.45,11.26 13.41,12.95 L 7.1,23.09 C 6.79,23.59 6.4,24.23 5.83,24.24 5.17,24.26 4.52,24.3 3.88,24.21 3.59,24.17 2.68,24.15 2.73,23.78 2.76,23.59 2.9,23.36 2.99,23.21 L 12.43,8.09 C 12.97,7.22 13.51,6.3 13.58,5.77 13.9,3.48 12.66,2.48 10.09,2.12 6.65,1.65 1.71,6.13 1.24,9.57 1.07,10.75 0.85,11.66 2.24,11.85 3.41,12.02 5.82,10.03 6.48,9.22 7.3,8.23 8.06,7.15 8.29,7.19 8.6,7.23 8.6,7.71 8.56,7.99 8.36,9.46 3.87,13.41 1.96,13.14 0.08,12.88 -0.18,11.3 0.09,9.41 0.75,4.6 6.29,0.37 10.28,0.92 c 2.67,0.38 6.45,2.01 5.99,5.33 -0.14,1 -0.32,1.35 -0.77,2.24 1.22,-1.56 4,-4.19 6.24,-3.88 1.79,0.25 3.39,1.33 3.11,3.34 -0.12,0.85 -0.59,1.63 -0.99,2.37 1.38,-1.33 4.96,-4.34 7.69,-3.96 1.07,0.15 2.76,1.32 2.51,3.18 -0.21,1.46 -1.34,3.74 -2.07,4.91 l -2.89,4.64 c -0.73,1.19 -1.26,2.38 -1.32,2.85 -0.08,0.58 -0.06,1.32 0.69,1.42 1.78,0.25 6.47,-4.19 7.31,-5.29 l 2.61,-3.41 c 0.2,-0.26 0.59,-0.54 0.94,-0.51 0.67,0.05 1.42,-0.23 2.09,-0.14 0.16,0.02 0.24,0.03 0.21,0.22 -0.01,0.08 -0.48,0.72 -0.69,1.01 l -2.69,3.8 c -0.79,1.05 -1.71,2.4 -1.85,3.38 -0.1,0.72 0.55,1.25 1.19,1.34 1.67,0.23 6.04,-4.05 6.94,-5.27 0,0 4.07,-5.45 5.6,-7.57 l -5.8,0.61 0.02,-0.26 c 0.14,-0.24 0.5,-0.72 0.78,-0.82 l 5.77,-0.59 4.08,-5.4 c 0.28,-0.38 0.77,-0.78 0.93,-0.77 0.85,0.04 1.8,0 2.64,0.11 0.16,0.03 0.17,0.15 0.15,0.28 -0.02,0.13 -0.41,0.78 -0.66,1.11 L 54.9,9.49 61.26,8.81 61.21,9.02 60.7,9.7 60.51,9.89 54.1,10.57 48.09,18.58 c -0.51,0.69 -1.74,2.67 -1.85,3.47 -0.04,0.29 -0.09,1.37 0.36,1.43 1.84,0.25 4.28,-2.52 6.53,-5.16 2.13,-2.5 5.37,-4.62 8.72,-4.16 1.19,0.17 2.99,0.88 2.78,2.38 -0.15,1.11 -0.71,1.59 -1.63,1.46 -1.21,-0.17 0.14,-2.43 -1.62,-2.67 -1.79,-0.25 -5.9,4.4 -6.19,6.43 -0.12,0.9 0.66,1.63 1.49,1.74 1.97,0.28 6.8,-1.85 9.58,-6 3.98,-5.95 11.48,-16.4 11.48,-16.4 0.14,-0.2 0.24,-0.41 0.49,-0.51 0.21,-0.08 2.23,-0.12 2.61,-0.06 0.14,0.02 0.41,0.04 0.41,0.29 0,0.16 -0.17,0.46 -0.4,0.8 L 70.14,16.9 c 1.31,-1.17 3.78,-3.1 5.69,-2.84 1.26,0.18 2.4,1.07 2.2,2.51 -0.11,0.83 -4.41,5.92 -4.48,6.42 -0.05,0.36 0.21,0.64 0.49,0.68 2.28,0.31 5.35,-2.59 6.61,-4.33 1.95,-2.71 4.42,-5.74 8.06,-5.24 1.62,0.23 2.17,1.26 1.96,2.79 -0.08,0.58 -0.44,1.2 -0.78,1.66 -1.69,2.31 -4.64,3.17 -7.38,3.23 -0.08,0.2 -0.14,0.41 -0.17,0.62 -0.18,1.28 1.08,1.6 2.08,1.74 4.22,0.59 7.96,-5.1 10.3,-8.28 l 9.2,-12.43 c 0.15,-0.2 0.25,-0.42 0.5,-0.52 0.21,-0.08 2.23,-0.11 2.61,-0.06 0.14,0.02 0.41,0.04 0.41,0.29 0,0.16 -0.17,0.46 -0.41,0.8 L 97.37,17.5 c -0.66,0.94 -3.54,4.9 -3.69,5.99 -0.05,0.36 0.14,0.47 0.46,0.52 2.83,0.39 8.58,-5.45 10.67,-8.28 l 9.11,-12.31 c 0.14,-0.2 0.25,-0.42 0.49,-0.52 0.22,-0.08 2.23,-0.11 2.61,-0.06 0.14,0.02 0.42,0.04 0.42,0.29"
         inkscape:connector-curvature="0" />
    </g>
  </g>
</svg>
